<svg viewBox="0 0 397.5 191.25" id="ajax" width="100%" height="100%"><path d="M136.504 15.73a25.28 25.28 0 0 0-25.336 25.336v62.713l-.838-.002-12.387-10.613-9.74 10.143 32.026 32.025 32.56-32.025-11.209-10.143-10.603 10.66-1.184-.002V42.668c0-7.764 6.25-14.014 14.014-14.014h11.134c7.764 0 14.014 6.25 14.014 14.014v6.527h21.65v-8.129A25.28 25.28 0 0 0 165.27 15.73h-28.766zm43.437 40.2l-32.56 32.025 11.209 10.143 10.603-10.66 1.184.001v61.155c0 7.763-6.25 14.013-14.014 14.013H145.23a13.983 13.983 0 0 1-14.014-14.013v-6.528h-21.65v8.13A25.28 25.28 0 0 0 134.9 175.53h28.766a25.28 25.28 0 0 0 25.336-25.336V87.482l.838.002 12.387 10.614 9.74-10.143L179.94 55.93zm115.07 34.71l31.645 40.147-35.045 42.438h29.03l19.353-27.924 19.746 27.924h27.201l-34.392-42.83 32.299-39.754H358.04l-18.437 26.154L322.21 90.64h-27.2zm-246.189.284L12.205 172.94h23.95l7.118-17.382h36.803l7.12 17.382h23.949l-36.71-82.017H48.823zm177.604 0l-36.617 82.017h23.949l7.119-17.382h36.803l7.119 17.382h23.95l-36.71-82.017h-25.613zM61.828 110.262l6.213 15.595 6.213 15.598-12.389.03-12.388.03 6.175-15.626 6.176-15.627zm177.604 0l6.213 15.595 6.212 15.598-12.388.03-12.389.03 6.176-15.626 6.176-15.627z"></path></svg>
