<!DOCTYPE svg PUBLIC "-//W3C//DTD SVG 20010904//EN"
 "http://www.w3.org/TR/2001/REC-SVG-20010904/DTD/svg10.dtd">
<svg version="1.0" xmlns="http://www.w3.org/2000/svg" x="0"   y="0"
 width="700" height="356" viewBox="0 0 700 356"
 preserveAspectRatio="none">
<g transform="translate(0.000000,356.000000) scale(0.100000,-0.100000)"
fill="#000000" stroke="none">
<path d="M1450 3340 l0 -140 485 0 485 0 0 140 0 140 -485 0 -485 0 0 -140z"/>
<path d="M1450 2815 l0 -145 483 2 482 3 3 143 3 142 -486 0 -485 0 0 -145z"/>
<path d="M1450 2291 l0 -140 963 -4 c819 -3 974 -6 1042 -20 190 -37 323 -100
400 -190 l35 -41 0 86 c0 75 -4 92 -32 148 -69 140 -201 230 -403 275 l-110
25 -947 0 -948 0 0 -139z"/>
<path d="M1450 1761 l0 -140 1063 -4 c722 -3 1089 -8 1147 -16 80 -11 174 -31
213 -46 15 -6 17 0 17 60 0 59 -4 73 -27 104 -40 53 -61 69 -128 100 -68 32
-166 57 -275 71 -43 5 -494 10 -1042 10 l-968 0 0 -139z"/>
<path d="M3807 1419 c-136 -36 -260 -41 -1319 -46 l-1038 -5 0 -139 0 -139
934 0 c568 0 974 4 1037 10 240 24 404 93 455 191 14 29 20 150 7 148 -5 -1
-39 -10 -76 -20z"/>
<path d="M3833 1034 c-88 -89 -238 -149 -436 -174 -51 -6 -433 -11 -1012 -13
l-930 -2 -3 -142 -3 -143 913 0 c560 0 946 4 998 10 244 30 419 133 498 293
30 60 33 73 30 144 l-3 79 -52 -52z"/>
<path d="M3890 562 c0 -50 27 -85 90 -117 101 -51 163 -55 916 -55 l694 0 0
84 0 84 -772 5 c-709 5 -807 8 -900 32 -27 7 -28 6 -28 -33z"/>
<path d="M3890 340 c0 -107 72 -192 207 -243 57 -22 64 -22 776 -25 l717 -3 0
85 0 85 -707 4 c-620 3 -716 6 -770 20 -86 23 -145 52 -187 93 l-36 35 0 -51z"/>
</g>
</svg>
