<svg viewBox="0 0 128 72" id="stars" width="100%" height="100%"><path d="M49.9 53c-.2 0-.7-.1-.8-.4-.2-.3-.3-.5-.3-.9v-.5l2.5-13.1L41 28.8c-.4-.5-.7-.9-.7-1.3 0-.6.6-1 1.7-1.1l14.2-1.9 6.3-12c.4-.6.8-1 1.4-1 .6 0 1 .2 1.4 1l6.3 12 14.2 1.9c1.1.1 1.7.5 1.7 1.1 0 .4-.1.8-.7 1.3l-10.3 9.3 2.1 13.1v.5c0 .9-.3 1.3-1.1 1.3-.3 0-.7 0-1.1-.3l-12.7-6.2L51 52.7c-.4.2-.8.3-1.1.3z"></path><path class="st0" d="M87.5 27.5c0-.6-.6-1-1.7-1.1l-14.2-1.9-6.3-12c-.4-.8-.8-1-1.4-1-.6 0-1 .4-1.4 1l-6.3 12L42 26.4c-1.1.1-1.7.5-1.7 1.1 0 .4.3.8.7 1.3l10.3 9.3-2.5 13.1v.5c0 .4.1.6.3.9.1.3.6.4.8.4.3 0 .7-.1 1.1-.3l12.7-6.2 12.7 6.2c.4.3.8.3 1.1.3.8 0 1.1-.4 1.1-1.3v-.5l-2.1-13.1 10.3-9.3c.6-.5.7-.9.7-1.3z"></path><path d="M43.6 41.7l-8.1-1.1-3.7-6.9c-.3-.4-.4-.7-.8-.7-.3 0-.6.3-.8.6l-3.7 6.9-8.1 1.1c-.6.1-1 .4-1 .6 0 .3.1.5.4.8l5.9 5.4-1.4 7.6v.3c0 .3 0 .4.1.5s.3.3.6.3c.1 0 .4 0 .7-.1l7.3-3.6 7.3 3.6h.7c.4 0 .7-.3.7-.8v-.3l-1.4-7.5 5.9-5.4c.3-.3.4-.5.4-.8 0-.1-.4-.4-1-.5z"></path><path d="M40.8 43.3l-4.9 4.5 1.2 6.4-6.1-3.1-6.2 3.1 1.2-6.4-5-4.5 6.9-.9 3-5.7 3 5.7zm-23.5 6.6l-5.3-.8-2.5-4.6c-.1-.3-.3-.4-.6-.4s-.4.1-.6.4l-2.5 4.6-5.4.8c-.4 0-.6.3-.6.5 0 .1.1.3.3.5l4 3.6-1 5v.3c0 .1 0 .3.1.4.1.1.1.1.3.1s.3 0 .4-.1l4.8-2.4 4.8 2.4h.6c.3 0 .4-.1.4-.5v-.3l-1-5 4-3.6c.1-.1.3-.4.3-.5.2-.2 0-.3-.5-.4z"></path><path d="M15.5 51l-3.3 3 .8 4.2-4.1-2-4.1 2 .8-4.2-3.3-3 4.5-.6 2.1-3.8 2.1 3.8zm88.7-2.8l5.9-5.4c.3-.3.4-.5.4-.8 0-.4-.3-.6-1-.6l-8.1-1.1-3.7-6.9c-.1-.4-.4-.6-.8-.6-.3 0-.6.3-.8.6l-3.6 7-8.1 1.1c-.6.1-1 .4-1 .6 0 .3.1.5.4.8l5.9 5.4-1.4 7.5v.3c0 .5.3.8.7.8.1 0 .4 0 .7-.1l7.3-3.6 7.3 3.6c.3.1.4.1.7.1s.4-.1.6-.3c.1-.1.1-.4.1-.5v-.3l-1.5-7.6z"></path><path d="M106.8 43.1l-5 4.5L103 54l-6-3.1-6.2 3.1 1.2-6.4-5-4.5 6.9-.9 3-5.7 3 5.7zm21.2 7c0-.3-.1-.4-.6-.5l-5.4-.8-2.5-4.6c-.1-.3-.3-.4-.5-.4-.3 0-.4.1-.6.4l-2.5 4.6-5.4.8c-.4 0-.6.3-.6.5 0 .1.1.3.3.5l4 3.6-1 5v.3c0 .4.1.5.4.5.1 0 .3 0 .4-.1l4.8-2.4 4.8 2.4c.1.1.3.1.4.1s.3 0 .3-.1c.1-.1.1-.3.1-.4v-.3l-1-5 4-3.6c.6-.2.6-.3.6-.5z"></path><path d="M125.7 50.8l-3.3 2.9.8 4.2-4.1-2-4.1 2 .8-4.2-3.3-2.9 4.5-.6 2.1-3.8 2.1 3.8z"></path></svg>
