<svg viewBox="0 0 399.95 345.11" id="vue" width="100%" height="100%"><g data-name="Layer 2"><g data-name="Layer 1"><path d="M0 .1l80.1.17c5.38 9.38 10.7 18.78 16.13 28.13q48.77 84.18 97.65 168.33c1.86 3.21 3.83 6.35 6.21 10.3 7.23-12.41 13.92-23.86 20.58-35.33Q251 119.48 281.22 67.23q19.36-33.45 38.68-67H400c-66.68 115-133 229.51-199.91 344.84-4.54-7.75-8.65-14.7-12.7-21.69Q95.33 164.69 3.32 6C2.34 4.26 1.11 2.71 0 1.1z" fill="#41b783"></path><path d="M319.9.27q-19.33 33.48-38.68 67Q251 119.49 220.67 171.7c-6.67 11.47-13.35 22.92-20.58 35.3-2.38-3.95-4.35-7.09-6.21-10.3Q145 112.58 96.23 28.4C90.8 19.05 85.48 9.65 80.1.27 103.75.21 127.39.08 151 .26c1.71 0 4 1.92 5 3.58 13.76 23.33 27.31 46.78 40.9 70.16.88 1.52 1.84 3 3.1 5 1.26-2 2.22-3.51 3.1-5 13.51-23.27 27.07-46.51 40.45-69.86 1.68-2.88 3.37-4.14 6.92-4.14 23.14.24 46.29.21 69.43.27z" fill="#35495e"></path></g></g></svg>
