<svg xmlns="http://www.w3.org/2000/svg"><defs><symbol viewBox="0 0 397.5 191.25" id="ajax"><path d="M136.504 15.73a25.28 25.28 0 0 0-25.336 25.336v62.713l-.838-.002-12.387-10.613-9.74 10.143 32.026 32.025 32.56-32.025-11.209-10.143-10.603 10.66-1.184-.002V42.668c0-7.764 6.25-14.014 14.014-14.014h11.134c7.764 0 14.014 6.25 14.014 14.014v6.527h21.65v-8.129A25.28 25.28 0 0 0 165.27 15.73h-28.766zm43.437 40.2l-32.56 32.025 11.209 10.143 10.603-10.66 1.184.001v61.155c0 7.763-6.25 14.013-14.014 14.013H145.23a13.983 13.983 0 0 1-14.014-14.013v-6.528h-21.65v8.13A25.28 25.28 0 0 0 134.9 175.53h28.766a25.28 25.28 0 0 0 25.336-25.336V87.482l.838.002 12.387 10.614 9.74-10.143L179.94 55.93zm115.07 34.71l31.645 40.147-35.045 42.438h29.03l19.353-27.924 19.746 27.924h27.201l-34.392-42.83 32.299-39.754H358.04l-18.437 26.154L322.21 90.64h-27.2zm-246.189.284L12.205 172.94h23.95l7.118-17.382h36.803l7.12 17.382h23.949l-36.71-82.017H48.823zm177.604 0l-36.617 82.017h23.949l7.119-17.382h36.803l7.119 17.382h23.95l-36.71-82.017h-25.613zM61.828 110.262l6.213 15.595 6.213 15.598-12.389.03-12.388.03 6.175-15.626 6.176-15.627zm177.604 0l6.213 15.595 6.212 15.598-12.388.03-12.389.03 6.176-15.626 6.176-15.627z"/></symbol><symbol viewBox="0 0 24 24" id="bootstrap"><path d="M20 0H4a4.01 4.01 0 0 0-4 4v16c0 2.2 1.8 4 4 4h16c2.2 0 4-1.8 4-4V4c0-2.2-1.8-4-4-4zm-2.187 16.855c-.2.482-.517.907-.923 1.234-.42.34-.952.62-1.607.82-.654.203-1.432.305-2.333.305H6.518v-14h6.802c1.258 0 2.266.283 3.02.86.76.58 1.138 1.444 1.138 2.61 0 .705-.172 1.31-.518 1.81-.344.497-.84.886-1.48 1.156v.046c.854.18 1.515.585 1.95 1.215s.658 1.426.658 2.387c0 .538-.104 1.05-.3 1.528l.025.027zm-2.776-3.45c-.41-.375-.986-.558-1.73-.558H8.985v4.368h4.334c.74 0 1.32-.192 1.73-.58.41-.385.62-.934.62-1.64-.007-.69-.21-1.224-.62-1.59h-.017zm-.6-2.823c.396-.336.59-.817.59-1.444 0-.704-.175-1.204-.53-1.49-.352-.285-.86-.433-1.528-.433h-4v3.863h4c.583 0 1.08-.17 1.464-.496z"/></symbol><symbol viewBox="0 0 24 24" id="css"><path d="M1.5 0h21l-1.91 21.563L11.977 24l-8.565-2.438L1.5 0zm17.09 4.413L5.41 4.41l.213 2.622 10.125.002-.255 2.716h-6.64l.24 2.573h6.182l-.366 3.523-2.91.804-2.956-.81-.188-2.11h-2.61l.29 3.855L12 19.288l5.373-1.53L18.59 4.414z"/></symbol><symbol viewBox="0 0 24 24" id="git"><path d="M23.546 10.93L13.067.452a1.55 1.55 0 0 0-2.188 0L8.708 2.627l2.76 2.76a1.838 1.838 0 0 1 2.327 2.341l2.658 2.66a1.838 1.838 0 0 1 1.9 3.039 1.837 1.837 0 0 1-2.6 0 1.846 1.846 0 0 1-.404-1.996L12.86 8.955v6.525c.176.086.342.203.488.348a1.848 1.848 0 0 1 0 2.6 1.844 1.844 0 0 1-2.609 0 1.834 1.834 0 0 1 0-2.598c.182-.18.387-.316.605-.406V8.835a1.834 1.834 0 0 1-.996-2.41L7.636 3.7.45 10.881c-.6.605-.6 1.584 0 2.189l10.48 10.477a1.545 1.545 0 0 0 2.186 0l10.43-10.43a1.544 1.544 0 0 0 0-2.187"/></symbol><symbol viewBox="0 0 24 24" id="gulp"><path d="M15.156 19.432l.636-1.084s-1.444.591-3.86.591c-2.418 0-3.84-.568-3.84-.568l.711 1.183.252 3.729c0 .403 1.314.718 2.936.718 1.623 0 2.938-.314 2.938-.718l.229-3.835v-.016zm.615-7.046c-.769.046-1.153.903-1.539 1.805-.143.33-.63 1.737-.948 1.563-.318-.173.413-1.329.619-2.017-.237.174-1.105.849-1.329.215-.358.314-1.129.48-1.042-.329-.191.345-.621.823-1.139.614-.673-.255.395-2.411.66-2.307.266.121-.053.6-.136.794-.186.419-.398.958-.255 1.063.24.194.904-.703.919-.719.124-.165.479-1.229.763-1.107.285.134-.711 1.541-.34 1.826.076.06.383-.03.569-.239.12-.12.078-.42.479-1.378.404-.959.764-2.156 1.039-2.066s.049.703-.051.943c-.464 1.078-1.268 2.844-.89 2.71.374-.135.569-.135.943-.569.374-.434.345-1.152.599-1.137.24.014.21.254.15.418.24-.27 1.152-.868 1.363-.284.254.688-1.304 1.692-.914 1.632.375-.045.988-.434 1.258-.793l.719-6.5s-.734.6-5.361.6-5.284-.584-5.284-.584l.613 5.93c.33-.928 1.108-2.814 2.322-2.74.554.03 1.303 1.109.658 1.139-.27.015-.3-.539-.614-.614-.239-.046-.554.135-.763.345-.404.404-1.304 2.006-1.184 2.801.15 1.018 1.407-.346 1.617-.75.149-.283.254-1.138.568-1.048.33.09-.029.974-.27 1.737-.27.869-.404 1.781-.732 1.676-.33-.104.209-1.227.178-1.422-.313.299-.883 1.02-1.631.659l.374 3.699s1.019.793 4.073.793 4.118-.793 4.118-.793l.479-4.283c-.389.39-1.617 1.063-1.692.3-.059-.614 1.333-1.498.974-1.514l.06-.069zM17.346.669l-2.659 2.8-.486 1.901c1.881.12 3.189.386 3.189.694 0 .419-2.414.757-5.391.757s-5.39-.343-5.39-.763c0-.419 2.414-.764 5.391-.764.423 0 .844 0 1.264.016l.561-2.276L16.65.039c.068-.09.28-.015.474.15.194.149.299.344.239.434v.03l-.017.016zm-3.834 5.795s-.523 0-.61-.08a.14.14 0 0 1-.036-.09c0-.058.039-.091.09-.11l.044.075c-.021.006-.029.015-.033.023 0 .041.314.069.555.066.239-.003.531-.023.533-.064 0-.012-.023-.023-.061-.033l.045-.072c.063.02.117.058.117.121 0 .11-.141.128-.23.141-.107.015-.412.023-.412.023h-.002z"/></symbol><symbol viewBox="0 0 24 24" id="html"><path d="M1.5 0h21l-1.91 21.563L11.977 24l-8.564-2.438L1.5 0zm7.031 9.75l-.232-2.718 10.059.003.23-2.622L5.412 4.41l.698 8.01h9.126l-.326 3.426-2.91.804-2.955-.81-.188-2.11H6.248l.33 4.171L12 19.351l5.379-1.443.744-8.157H8.531z"/></symbol><symbol viewBox="0 0 24 24" id="jquery"><path d="M1.534 5.874c-2.123 3.05-1.86 7.017-.237 10.256.037.079.078.154.118.229.023.052.049.1.077.149.013.028.031.057.047.083.026.052.054.102.081.152l.157.265c.029.049.057.097.09.146.055.094.12.187.177.281.026.039.05.078.079.117a6.36 6.36 0 0 0 .31.444c.078.107.156.211.24.315.027.038.057.076.085.114l.221.269c.027.031.054.067.083.099.098.118.202.233.306.349 0 .002.003.004.005.007a3.13 3.13 0 0 0 .424.44c.08.082.16.164.245.244l.101.097c.111.104.222.208.339.308.002 0 .003.002.005.003l.057.05c.102.089.205.178.31.26l.125.105c.085.068.173.133.26.2l.136.104c.093.07.192.139.287.207.035.025.07.05.106.073l.029.023.281.185.12.08c.147.094.293.183.438.271.042.021.084.044.123.068.108.062.22.125.329.183.06.034.122.063.184.094.075.042.153.083.233.125a.324.324 0 0 1 .056.023c.033.015.064.031.096.047.12.06.245.117.375.174.024.01.05.02.076.034.144.063.288.123.437.182.034.01.07.027.105.04.135.051.274.103.411.152l.05.018c.153.052.304.102.459.15.036.01.073.023.111.033.159.048.313.105.473.136 10.26 1.87 13.242-6.169 13.242-6.169-2.505 3.262-6.95 4.122-11.16 3.165-.156-.036-.312-.086-.469-.132a13.522 13.522 0 0 1-.567-.181l-.062-.024c-.136-.046-.267-.097-.4-.148a1.613 1.613 0 0 0-.11-.041c-.147-.059-.29-.12-.432-.183-.031-.01-.057-.024-.088-.036a23.41 23.41 0 0 1-.361-.17 1.483 1.483 0 0 1-.106-.052c-.094-.044-.188-.094-.28-.142a3.942 3.942 0 0 1-.187-.096c-.113-.06-.226-.125-.339-.187-.034-.024-.073-.044-.112-.066a15.902 15.902 0 0 1-.438-.269 2.104 2.104 0 0 1-.118-.079 6.002 6.002 0 0 1-.312-.206c-.035-.023-.067-.048-.103-.073a9.541 9.541 0 0 1-.294-.212c-.042-.034-.087-.066-.132-.1-.088-.069-.177-.135-.265-.208l-.118-.094a10.58 10.58 0 0 1-.334-.281.258.258 0 0 0-.037-.03l-.347-.316-.1-.094c-.082-.083-.166-.163-.25-.245l-.097-.1a9.07 9.07 0 0 1-.309-.323l-.015-.016a17.944 17.944 0 0 1-.313-.354c-.027-.031-.052-.064-.08-.097l-.226-.277a21.248 21.248 0 0 1-.34-.448C2.16 11.786 1.315 7.386 3.184 3.777"/><path d="M8.121 3.305c-1.539 2.209-1.452 5.163-.254 7.499a9.1 9.1 0 0 0 .677 1.132c.23.33.484.72.792.986.107.122.223.24.344.359l.09.09c.114.11.231.218.35.325l.015.013a9.855 9.855 0 0 0 .414.342c.034.023.063.05.096.073.14.108.281.212.427.315l.015.009c.062.045.128.086.198.13.028.018.06.042.09.06.106.068.21.132.317.197.017.007.032.016.048.023.09.055.188.108.282.157.033.02.065.035.099.054.067.033.133.068.197.102l.032.014c.135.066.273.128.408.19.034.013.063.024.092.038.111.048.224.094.335.137.05.017.097.037.144.052.102.038.209.073.31.108l.14.045c.146.045.294.104.448.129 7.92 1.313 9.754-4.787 9.754-4.787-1.651 2.376-4.846 3.508-8.251 2.624a8.03 8.03 0 0 1-.448-.13c-.048-.013-.09-.028-.136-.042-.104-.036-.211-.071-.312-.109l-.144-.054c-.112-.045-.226-.087-.335-.135-.034-.015-.065-.025-.091-.04-.14-.063-.281-.125-.417-.192l-.206-.107-.119-.06a5.67 5.67 0 0 1-.265-.15.62.62 0 0 1-.062-.034c-.106-.066-.216-.13-.317-.198-.034-.019-.065-.042-.097-.062l-.208-.136c-.144-.1-.285-.208-.427-.312-.032-.029-.063-.053-.094-.079-1.497-1.177-2.678-2.786-3.238-4.608-.59-1.894-.46-4.018.559-5.742"/><path d="M13.66 1.384c-.908 1.332-.995 2.986-.37 4.455.664 1.56 2.022 2.785 3.604 3.365.065.025.128.046.195.07l.088.027c.092.029.185.063.28.084 4.376.844 5.56-2.247 5.879-2.701-1.042 1.496-2.789 1.855-4.932 1.334a4.844 4.844 0 0 1-.516-.16 6.344 6.344 0 0 1-.617-.254 6.521 6.521 0 0 1-1.08-.66c-1.92-1.454-3.109-4.23-1.857-6.491"/></symbol><symbol viewBox="0 0 24 24" id="js"><path d="M0 0h24v24H0V0zm22.034 18.276c-.175-1.095-.888-2.015-3.003-2.873-.736-.345-1.554-.585-1.797-1.14-.091-.33-.105-.51-.046-.705.15-.646.915-.84 1.515-.66.39.12.75.42.976.9 1.034-.676 1.034-.676 1.755-1.125-.27-.42-.404-.601-.586-.78-.63-.705-1.469-1.065-2.834-1.034l-.705.089c-.676.165-1.32.525-1.71 1.005-1.14 1.291-.811 3.541.569 4.471 1.365 1.02 3.361 1.244 3.616 2.205.24 1.17-.87 1.545-1.966 1.41-.811-.18-1.26-.586-1.755-1.336l-1.83 1.051c.21.48.45.689.81 1.109 1.74 1.756 6.09 1.666 6.871-1.004.029-.09.24-.705.074-1.65l.046.067zm-8.983-7.245h-2.248c0 1.938-.009 3.864-.009 5.805 0 1.232.063 2.363-.138 2.711-.33.689-1.18.601-1.566.48-.396-.196-.597-.466-.83-.855-.063-.105-.11-.196-.127-.196l-1.825 1.125c.305.63.75 1.172 1.324 1.517.855.51 2.004.675 3.207.405.783-.226 1.458-.691 1.811-1.411.51-.93.402-2.07.397-3.346.012-2.054 0-4.109 0-6.179l.004-.056z"/></symbol><symbol viewBox="0 0 24 24" id="photoshop"><path d="M0 .3v23.4h24V.3H0zm1 1h22v21.4H1V1.3zm4.8 4.48c0-.067.14-.116.224-.116.644-.033 1.588-.05 2.578-.05 2.772 0 3.85 1.52 3.85 3.466 0 2.54-1.842 3.63-4.102 3.63-.38 0-.51-.017-.775-.017v3.842c0 .083-.033.116-.115.116H5.916c-.083 0-.115-.03-.115-.113V5.78zm1.775 5.312c.23.016.412.016.81.016 1.17 0 2.27-.412 2.27-1.996 0-1.27-.786-1.914-2.122-1.914a12.2 12.2 0 0 0-.957.033v3.864zm8.607-1.188c-.792 0-1.056.396-1.056.726 0 .363.18.61 1.237 1.155 1.568.76 2.062 1.485 2.062 2.557 0 1.6-1.22 2.46-2.87 2.46-.876 0-1.62-.183-2.05-.43-.065-.033-.08-.082-.08-.165V14.74c0-.1.048-.133.114-.084a3.684 3.684 0 0 0 2.012.594c.792 0 1.122-.33 1.122-.776 0-.363-.23-.677-1.237-1.205-1.42-.68-2.014-1.37-2.014-2.527 0-1.287 1.006-2.36 2.755-2.36.86 0 1.464.132 1.794.28.082.05.1.132.1.198v1.37c0 .083-.05.133-.15.1-.444-.264-1.1-.43-1.743-.43z"/></symbol><symbol viewBox="0 0 24 24" id="sass"><path d="M12 0c6.627 0 12 5.373 12 12s-5.373 12-12 12S0 18.627 0 12 5.373 0 12 0zM9.615 15.998c.175.645.156 1.248-.024 1.792l-.065.18c-.024.061-.052.12-.078.176-.14.29-.326.56-.555.81-.698.759-1.672 1.047-2.09.805-.45-.262-.226-1.335.584-2.19.871-.918 2.12-1.509 2.12-1.509v-.003l.108-.061zm9.911-10.861c-.542-2.133-4.077-2.834-7.422-1.645-1.989.707-4.144 1.818-5.693 3.267C4.568 8.48 4.275 9.98 4.396 10.607c.427 2.211 3.457 3.657 4.703 4.73v.006c-.367.18-3.056 1.529-3.686 2.925-.675 1.47.105 2.521.615 2.655 1.575.436 3.195-.36 4.065-1.649.84-1.261.766-2.881.404-3.676.496-.135 1.08-.195 1.83-.104 2.101.24 2.521 1.56 2.43 2.1-.09.539-.523.854-.674.944-.15.091-.195.12-.181.181.015.09.091.09.21.075.165-.03 1.096-.45 1.141-1.471.045-1.29-1.186-2.729-3.375-2.7-.9.016-1.471.091-1.875.256a.362.362 0 0 0-.105-.105c-1.35-1.455-3.855-2.475-3.75-4.41.03-.705.285-2.564 4.8-4.814 3.705-1.846 6.661-1.335 7.171-.21.733 1.604-1.576 4.59-5.431 5.024-1.47.165-2.235-.404-2.431-.615-.209-.225-.239-.24-.314-.194-.12.06-.045.255 0 .375.12.3.585.825 1.396 1.095.704.225 2.43.359 4.5-.45 2.324-.899 4.139-3.405 3.614-5.505l.073.067z"/></symbol><symbol viewBox="0 0 463.001 463.001" id="search"><path d="M303.501 0c-87.948 0-159.5 71.551-159.5 159.5 0 36.188 12.122 69.593 32.507 96.386l-32.311 32.311a7.63 7.63 0 0 0-.569.643 39.816 39.816 0 0 0-8.127-.84c-10.55 0-20.47 4.109-27.933 11.572l-95.999 95.999C4.108 403.03 0 412.949 0 423.5s4.108 20.471 11.568 27.928C19.031 458.891 28.951 463 39.501 463s20.47-4.109 27.933-11.572l95.999-95.999c7.461-7.458 11.569-17.377 11.569-27.929 0-2.765-.289-5.484-.84-8.129.222-.176.437-.363.642-.568l32.31-32.31C233.908 306.879 267.313 319 303.501 319c87.948 0 159.5-71.551 159.5-159.5S391.449 0 303.501 0zM56.826 440.822C52.197 445.451 46.045 448 39.501 448s-12.696-2.549-17.326-7.179C17.548 436.196 15 430.045 15 423.5s2.548-12.696 7.176-17.322l86.698-86.698 34.647 34.647-86.695 86.695zm97.249-97.354l-34.528-34.528a24.425 24.425 0 0 1 15.954-5.926c6.274 0 12.55 2.389 17.326 7.166 4.627 4.625 7.175 10.776 7.175 17.321a24.306 24.306 0 0 1-5.927 15.967zm13.655-38.803a39.845 39.845 0 0 0-4.296-5.092 40.06 40.06 0 0 0-5.098-4.299l27.841-27.841c3 3.259 6.134 6.393 9.393 9.393l-27.84 27.839zM303.501 304c-79.678 0-144.5-64.822-144.5-144.5S223.823 15 303.501 15s144.5 64.822 144.5 144.5S383.179 304 303.501 304z"/><path d="M303.501 32c-70.304 0-127.5 57.196-127.5 127.5S233.197 287 303.501 287s127.5-57.196 127.5-127.5S373.805 32 303.501 32zm0 240c-62.032 0-112.5-50.467-112.5-112.5S241.469 47 303.501 47s112.5 50.467 112.5 112.5S365.533 272 303.501 272z"/><path d="M355.58 79.438a7.499 7.499 0 0 0-10.378 2.188 7.5 7.5 0 0 0 2.188 10.378C370.314 106.944 384 132.176 384 159.5c0 18.667-6.534 36.86-18.399 51.226a7.5 7.5 0 1 0 11.566 9.552C391.246 203.231 399 181.646 399 159.501c.001-32.414-16.231-62.343-43.42-80.063zm-34.724-13.863A96.293 96.293 0 0 0 303.501 64c-4.143 0-7.5 3.358-7.5 7.5s3.357 7.5 7.5 7.5c4.922 0 9.849.447 14.645 1.328a7.504 7.504 0 0 0 8.732-6.021 7.501 7.501 0 0 0-6.022-8.732z"/></symbol><symbol viewBox="0 0 128 72" id="stars"><path d="M49.9 53c-.2 0-.7-.1-.8-.4-.2-.3-.3-.5-.3-.9v-.5l2.5-13.1L41 28.8c-.4-.5-.7-.9-.7-1.3 0-.6.6-1 1.7-1.1l14.2-1.9 6.3-12c.4-.6.8-1 1.4-1 .6 0 1 .2 1.4 1l6.3 12 14.2 1.9c1.1.1 1.7.5 1.7 1.1 0 .4-.1.8-.7 1.3l-10.3 9.3 2.1 13.1v.5c0 .9-.3 1.3-1.1 1.3-.3 0-.7 0-1.1-.3l-12.7-6.2L51 52.7c-.4.2-.8.3-1.1.3z"/><path class="st0" d="M87.5 27.5c0-.6-.6-1-1.7-1.1l-14.2-1.9-6.3-12c-.4-.8-.8-1-1.4-1-.6 0-1 .4-1.4 1l-6.3 12L42 26.4c-1.1.1-1.7.5-1.7 1.1 0 .4.3.8.7 1.3l10.3 9.3-2.5 13.1v.5c0 .4.1.6.3.9.1.3.6.4.8.4.3 0 .7-.1 1.1-.3l12.7-6.2 12.7 6.2c.4.3.8.3 1.1.3.8 0 1.1-.4 1.1-1.3v-.5l-2.1-13.1 10.3-9.3c.6-.5.7-.9.7-1.3z"/><path d="M43.6 41.7l-8.1-1.1-3.7-6.9c-.3-.4-.4-.7-.8-.7-.3 0-.6.3-.8.6l-3.7 6.9-8.1 1.1c-.6.1-1 .4-1 .6 0 .3.1.5.4.8l5.9 5.4-1.4 7.6v.3c0 .3 0 .4.1.5s.3.3.6.3c.1 0 .4 0 .7-.1l7.3-3.6 7.3 3.6h.7c.4 0 .7-.3.7-.8v-.3l-1.4-7.5 5.9-5.4c.3-.3.4-.5.4-.8 0-.1-.4-.4-1-.5z"/><path d="M40.8 43.3l-4.9 4.5 1.2 6.4-6.1-3.1-6.2 3.1 1.2-6.4-5-4.5 6.9-.9 3-5.7 3 5.7zm-23.5 6.6l-5.3-.8-2.5-4.6c-.1-.3-.3-.4-.6-.4s-.4.1-.6.4l-2.5 4.6-5.4.8c-.4 0-.6.3-.6.5 0 .1.1.3.3.5l4 3.6-1 5v.3c0 .1 0 .3.1.4.1.1.1.1.3.1s.3 0 .4-.1l4.8-2.4 4.8 2.4h.6c.3 0 .4-.1.4-.5v-.3l-1-5 4-3.6c.1-.1.3-.4.3-.5.2-.2 0-.3-.5-.4z"/><path d="M15.5 51l-3.3 3 .8 4.2-4.1-2-4.1 2 .8-4.2-3.3-3 4.5-.6 2.1-3.8 2.1 3.8zm88.7-2.8l5.9-5.4c.3-.3.4-.5.4-.8 0-.4-.3-.6-1-.6l-8.1-1.1-3.7-6.9c-.1-.4-.4-.6-.8-.6-.3 0-.6.3-.8.6l-3.6 7-8.1 1.1c-.6.1-1 .4-1 .6 0 .3.1.5.4.8l5.9 5.4-1.4 7.5v.3c0 .5.3.8.7.8.1 0 .4 0 .7-.1l7.3-3.6 7.3 3.6c.3.1.4.1.7.1s.4-.1.6-.3c.1-.1.1-.4.1-.5v-.3l-1.5-7.6z"/><path d="M106.8 43.1l-5 4.5L103 54l-6-3.1-6.2 3.1 1.2-6.4-5-4.5 6.9-.9 3-5.7 3 5.7zm21.2 7c0-.3-.1-.4-.6-.5l-5.4-.8-2.5-4.6c-.1-.3-.3-.4-.5-.4-.3 0-.4.1-.6.4l-2.5 4.6-5.4.8c-.4 0-.6.3-.6.5 0 .1.1.3.3.5l4 3.6-1 5v.3c0 .4.1.5.4.5.1 0 .3 0 .4-.1l4.8-2.4 4.8 2.4c.1.1.3.1.4.1s.3 0 .3-.1c.1-.1.1-.3.1-.4v-.3l-1-5 4-3.6c.6-.2.6-.3.6-.5z"/><path d="M125.7 50.8l-3.3 2.9.8 4.2-4.1-2-4.1 2 .8-4.2-3.3-2.9 4.5-.6 2.1-3.8 2.1 3.8z"/></symbol><symbol viewBox="0 0 399.95 345.11" id="vue"><g data-name="Layer 2"><g data-name="Layer 1"><path d="M0 .1l80.1.17c5.38 9.38 10.7 18.78 16.13 28.13q48.77 84.18 97.65 168.33c1.86 3.21 3.83 6.35 6.21 10.3 7.23-12.41 13.92-23.86 20.58-35.33Q251 119.48 281.22 67.23q19.36-33.45 38.68-67H400c-66.68 115-133 229.51-199.91 344.84-4.54-7.75-8.65-14.7-12.7-21.69Q95.33 164.69 3.32 6C2.34 4.26 1.11 2.71 0 1.1z" fill="#41b783"/><path d="M319.9.27q-19.33 33.48-38.68 67Q251 119.49 220.67 171.7c-6.67 11.47-13.35 22.92-20.58 35.3-2.38-3.95-4.35-7.09-6.21-10.3Q145 112.58 96.23 28.4C90.8 19.05 85.48 9.65 80.1.27 103.75.21 127.39.08 151 .26c1.71 0 4 1.92 5 3.58 13.76 23.33 27.31 46.78 40.9 70.16.88 1.52 1.84 3 3.1 5 1.26-2 2.22-3.51 3.1-5 13.51-23.27 27.07-46.51 40.45-69.86 1.68-2.88 3.37-4.14 6.92-4.14 23.14.24 46.29.21 69.43.27z" fill="#35495e"/></g></g></symbol><symbol viewBox="0 0 24 24" id="webpack"><path d="M21.016 18.12L12.35 23v-3.8l5.399-2.957 3.266 1.877zm.592-.534V7.38l-3.17 1.821v6.56l3.17 1.824zm-18.682.534L11.59 23v-3.8l-5.398-2.957-3.266 1.877zm-.593-.534V7.38l3.17 1.821v6.56l-3.17 1.824zM2.704 6.72l8.886-5.005v3.674L5.897 8.507l-.043.025-3.15-1.812zm18.534 0L12.35 1.715v3.674l5.693 3.118.043.025 3.15-1.812zM11.59 18.335l-5.327-2.916V9.642l5.326 3.062v5.63zm.76 0l5.326-2.916V9.642l-5.326 3.062v5.63zM6.625 8.973l5.347-2.928 5.347 2.928-5.347 3.075-5.347-3.075z"/></symbol></defs></svg>